HIERARCHY
ROOT Hips
{
    OFFSET 0.000000 0.000000 0.000000
    CHANNELS 6 Xposition Yposition Zposition Zrotation Xrotation Yrotation
        JOINT Chest
        {
            OFFSET -0.000000 26.747992 -0.000000
            CHANNELS 3 Zrotation Xrotation Yrotation
            JOINT Neck
            {
                OFFSET -0.000000 19.168715 0.000000
                CHANNELS 3 Zrotation Xrotation Yrotation
                JOINT Head
                {
                    OFFSET -0.000000 10.083335 0.000000
                    CHANNELS 3 Zrotation Xrotation Yrotation
                    End Site
                    {
                        OFFSET -0.000000 15.583343 0.000000
                    }
                }
            }
            JOINT LeftCollar
            {
                OFFSET -0.000000 19.168715 0.000000
                CHANNELS 3 Zrotation Xrotation Yrotation
                JOINT LeftShoulder
                {
                    OFFSET 19.500000 -0.000000 0.000000
                    CHANNELS 3 Zrotation Xrotation Yrotation
                    JOINT LeftElbow
                    {
                        OFFSET 19.022890 0.000000 0.000000
                        CHANNELS 3 Zrotation Xrotation Yrotation
                        JOINT LeftWrist
                        {
                            OFFSET 24.768559 0.000000 0.000000
                            CHANNELS 3 Zrotation Xrotation Yrotation
                            End Site
                            {
                                OFFSET 0.000000 -13.750003 0.000000
                            }
                        }
                    }
                }
            }
            JOINT RightCollar
            {
                OFFSET -0.000000 19.168715 0.000000
                CHANNELS 3 Zrotation Xrotation Yrotation
                JOINT RightShoulder
                {
                    OFFSET -19.500000 0.000000 0.000000
                    CHANNELS 3 Zrotation Xrotation Yrotation
                    JOINT RightElbow
                    {
                        OFFSET -19.022890 0.000000 0.000000
                        CHANNELS 3 Zrotation Xrotation Yrotation
                        JOINT RightWrist
                        {
                            OFFSET -24.768559 0.000000 0.000000
                            CHANNELS 3 Zrotation Xrotation Yrotation
                            End Site
                            {
                                OFFSET -0.000000 -13.750003 0.000000
                            }
                        }
                    }
                }
            }
        }
    JOINT LeftHip
    {
        OFFSET 11.000002 0.000000 0.000000
        CHANNELS 3 Zrotation Xrotation Yrotation
        JOINT LeftKnee
        {
            OFFSET -0.000000 -39.837296 0.000000
            CHANNELS 3 Zrotation Xrotation Yrotation
            JOINT LeftAnkle
            {
                OFFSET -0.000000 -38.248398 0.000000
                CHANNELS 3 Zrotation Xrotation Yrotation
                End Site
                {
                    OFFSET -0.000000 -4.583334 15.583343
                }
            }
        }
    }
    JOINT RightHip
    {
        OFFSET -11.000002 0.000000 0.000000
        CHANNELS 3 Zrotation Xrotation Yrotation
        JOINT RightKnee
        {
            OFFSET -0.000000 -39.837296 0.000000
            CHANNELS 3 Zrotation Xrotation Yrotation
            JOINT RightAnkle
            {
                OFFSET -0.000000 -38.248398 0.000000
                CHANNELS 3 Zrotation Xrotation Yrotation
                End Site
                {
                    OFFSET -0.000000 -4.583334 15.583343
                }
            }
        }
    }
}
MOTION
Frames:    15
Frame Time:    0.010000
88.516495    84.809967    -1.385422    -0.914160    -10.642765    -5.473259    0.271564    5.263265    27.421629    11.403740    17.739899    -31.125526    11.474233    -20.528454    -27.297031    -18.112247    -3.891960    24.188704    -24.235916    44.158325    -16.165958    18.147720    -27.571060    -113.660568    136.578094    46.215450    63.551895    11.771511    0.969584    10.227306    19.964447    14.971612    26.058710    -13.098799    -16.399265    113.987869    -46.398426    -3.650874    -18.911274    -10.401383    -13.347044    -13.404571    14.896456    35.062378    -34.314941    -5.483089    -8.029898    0.695608    -5.064830    11.184554    -7.660231    -18.048351    44.496151    11.331529    8.508429    43.482185    18.607916    
88.129280    84.821793    -1.329055    -1.000759    -10.644024    -4.788424    -0.521257    5.361206    28.938967    11.554679    17.338367    -31.518709    11.562600    -20.239433    -27.715223    -18.103155    -3.918561    24.361933    -24.170679    45.909210    -17.352772    18.445843    -27.809900    -112.889236    139.240021    52.457954    64.559494    11.961061    1.085387    10.882817    19.710945    15.865438    28.097431    -10.404473    -12.176706    114.699631    -47.269112    -0.002349    -13.634285    -10.093125    -13.305686    -13.448006    15.079807    34.955544    -35.040466    -5.502477    -8.104749    0.649867    -4.510128    11.397984    -7.647072    -17.667437    44.499584    10.505545    9.000254    43.721325    18.482773    
87.743149    84.828461    -1.289177    -1.090873    -10.570000    -4.052371    -1.199688    5.487056    30.202887    11.379513    16.794680    -31.760624    11.843130    -19.718641    -28.037144    -17.990433    -3.924813    24.652658    -24.524563    47.507717    -18.035360    18.805796    -28.015823    -112.200516    143.243546    58.807262    64.398834    12.324274    1.202103    11.433628    19.492290    16.976046    30.197845    -7.811254    -8.161180    114.390266    -48.339222    3.548479    -7.792951    -9.806644    -13.393756    -13.414493    15.382082    34.883739    -35.982159    -5.555234    -8.199896    0.666644    -3.943263    11.603439    -7.757013    -17.198050    44.506405    9.520823    9.523317    43.816612    18.198687    
87.360924    84.830597    -1.269896    -1.190459    -10.403637    -3.262076    -1.744795    5.631704    31.218960    10.905443    16.160904    -31.872763    12.318039    -19.060331    -28.265093    -17.794762    -3.909925    25.046646    -25.376648    48.804661    -18.036430    19.089333    -28.027523    -111.652817    148.303284    64.500488    62.991982    12.838909    1.328235    11.834817    19.268961    18.297327    32.279278    -5.442145    -4.737662    113.251060    -49.405083    6.709823    -1.762432    -9.545523    -13.631495    -13.347356    15.787090    34.854382    -37.101734    -5.633380    -8.316983    0.743008    -3.368247    11.769040    -8.020525    -16.661043    44.509598    8.388838    10.028177    43.777996    17.841013    
86.985146    84.828773    -1.274476    -1.307767    -10.140532    -2.422590    -2.148647    5.789702    32.012974    10.184480    15.502399    -31.891539    12.976213    -18.375832    -28.410482    -17.550531    -3.904295    25.486506    -26.771946    49.624947    -17.187197    19.144352    -27.674919    -111.333313    153.419373    69.121162    61.096249    13.479745    1.428660    12.040417    19.005669    19.836399    34.257309    -3.419114    -2.197115    111.588547    -50.227737    9.360127    4.071413    -9.309208    -14.024038    -13.292626    16.267723    34.873196    -38.338436    -5.730161    -8.455058    0.867874    -2.789968    11.873816    -8.452703    -16.077168    44.504978    7.124231    10.462891    43.614182    17.498701    
86.618141    84.823158    -1.305233    -1.450982    -9.788246    -1.545950    -2.415081    5.958692    32.620335    9.284133    14.889327    -31.856943    13.789647    -17.775749    -28.488338    -17.322163    -3.910853    25.893270    -28.617825    49.765545    -15.433454    18.824566    -26.772217    -111.362617    156.936600    72.721931    60.285103    14.197528    1.531993    12.014016    18.717918    21.507805    36.042721    -1.826768    -0.513008    109.737984    -50.742386    11.403574    9.220821    -9.094313    -14.561978    -13.291894    16.790056    34.942780    -39.619183    -5.842846    -8.610165    1.023837    -2.215376    11.907981    -9.054026    -15.466821    44.493042    5.760026    10.790426    43.326637    17.237530    
86.262146    84.813286    -1.363646    -1.625537    -9.363547    -0.649696    -2.559779    6.138590    33.077091    8.280834    14.383075    -31.803053    14.708219    -17.352207    -28.512312    -17.167336    -3.936263    26.198742    -30.664658    49.110352    -12.944704    18.014704    -25.244921    -111.811844    157.222183    75.474655    62.133018    14.946346    1.616519    11.737347    18.421261    23.259327    37.561523    -0.707693    0.370051    107.990417    -50.853413    12.955305    13.465735    -8.896618    -15.224049    -13.377291    17.318266    35.062393    -40.869232    -5.971018    -8.776041    1.190180    -1.654522    11.870599    -9.813067    -14.850882    44.480732    4.355521    11.000367    42.904884    17.083189    
85.919205    84.797859    -1.450524    -1.832198    -8.888905    0.244277    -2.608343    6.331753    33.413055    7.248277    14.022137    -31.752827    15.664459    -17.161114    -28.494011    -17.121431    -3.979836    26.364450    -32.564774    47.687916    -10.063873    16.710983    -23.128401    -112.656860    153.508408    77.462448    67.333786    15.680103    1.656718    11.214181    18.165554    25.031391    38.737141    -0.049677    0.642078    106.551262    -50.595432    14.102772    16.655970    -8.711505    -15.981597    -13.565755    17.817633    35.227913    -42.020996    -6.113098    -8.943609    1.344496    -1.121024    11.766857    -10.707686    -14.248672    44.480511    2.977244    11.100220    42.333832    17.034760    
85.591179    84.774788    -1.566341    -2.065669    -8.388884    1.110839    -2.594004    6.542460    33.649132    6.251112    13.815225    -31.715408    16.579521    -17.216021    -28.441908    -17.194016    -4.015749    26.394793    -34.009018    45.679161    -7.187843    15.011761    -20.557659    -113.786278    146.611511    78.734909    74.994461    16.354519    1.644862    10.473711    18.013657    26.747896    39.507248    0.231663    0.549117    105.530518    -50.070713    14.926933    18.768568    -8.535326    -16.803051    -13.857555    18.258009    35.432747    -43.021172    -6.267148    -9.102861    1.466863    -0.632288    11.604897    -11.705959    -13.676520    44.508968    1.673459    11.099186    41.602909    17.089931    
85.279694    84.741333    -1.711652    -2.314303    -7.886362    1.922635    -2.553817    6.773250    33.797226    5.339756    13.748944    -31.689577    17.376980    -17.497524    -28.361759    -17.329851    -4.082899    26.330217    -34.916996    43.451820    -4.604281    13.112810    -17.856922    -115.002045    138.975479    79.344765    82.490807    16.936844    1.585759    9.566846    18.014023    28.332598    39.833282    0.260170    0.314192    104.956215    -49.389378    15.499043    19.894968    -8.366461    -17.658854    -14.234279    18.617781    35.668446    -43.836586    -6.431856    -9.244080    1.542178    -0.208833    11.392553    -12.767396    -13.147677    44.585526    0.463124    11.004419    40.707851    17.252865    
84.985985    84.694550    -1.887527    -2.561686    -7.399248    2.651475    -2.524789    7.022662    33.861740    4.544794    13.794243    -31.664557    17.996281    -17.959919    -28.257219    -17.509081    -4.121830    26.222414    -35.302586    41.292645    -2.457036    11.190055    -15.183534    -116.190941    132.466476    79.773331    88.119987    17.411200    1.486772    8.560910    18.188404    29.725870    39.705750    0.181544    0.110784    104.791428    -48.673473    15.850474    20.176317    -8.205199    -18.525322    -14.660549    18.886574    35.924942    -44.457016    -6.604602    -9.358772    1.561074    0.127574    11.134147    -13.845390    -12.672698    44.731983    -0.662504    10.823873    39.642990    17.531631    
84.710487    84.631889    -2.095598    -2.789582    -6.938700    3.269849    -2.538980    7.283513    33.842602    3.877153    13.915400    -31.626394    18.401876    -18.544870    -28.130819    -17.673662    -4.164317    26.117025    -35.359909    39.501930    -0.786505    9.408569    -12.846845    -117.225655    128.784073    80.096977    90.208321    17.776712    1.357503    7.527133    18.527374    30.889917    39.149315    0.103237    0.052454    104.950043    -48.011837    15.986444    19.788752    -8.052502    -19.386421    -15.088167    19.065916    36.190723    -44.891449    -6.781944    -9.439775    1.518030    0.357169    10.828639    -14.889824    -12.260041    44.970989    -1.741843    10.562707    38.391670    17.943098    
84.452721    84.551888    -2.337772    -2.981242    -6.509124    3.752352    -2.619465    7.544998    33.737488    3.326582    14.074800    -31.558538    18.587667    -19.188974    -27.982906    -17.811848    -4.182529    26.045481    -35.234440    38.201183    0.451311    7.873360    -10.905500    -118.083176    127.976280    80.429909    89.082115    18.042469    1.215369    6.532944    18.991699    31.803942    38.227764    0.122416    0.208879    105.313126    -47.515388    15.864189    18.883791    -7.907792    -20.232843    -15.465641    19.164490    36.453197    -45.156139    -6.962679    -9.481245    1.408460    0.464259    10.469348    -15.849139    -11.913371    45.325226    -2.837424    10.221808    36.914406    18.508890    
84.211487    84.454636    -2.615735    -3.123863    -6.109878    4.077013    -2.778366    7.793378    33.544041    2.867714    14.242235    -31.447418    18.576826    -19.835899    -27.813141    -17.907381    -4.190939    26.027395    -35.072968    37.449806    1.306379    6.635803    -9.452245    -118.748749    130.290115    80.516945    84.699875    18.224979    1.067183    5.630165    19.519369    32.481068    37.039345    0.258444    0.568255    105.746841    -47.204548    15.475884    17.657846    -7.767999    -21.058844    -15.750462    19.192345    36.700096    -45.263557    -7.150062    -9.479808    1.229071    0.438926    10.045884    -16.673864    -11.631079    45.814396    -4.019434    9.808054    35.143410    19.234598    
83.985275    84.342064    -2.930399    -3.209766    -5.737493    4.226204    -3.016487    8.013576    33.260361    2.463330    14.398234    -31.282330    18.416264    -20.440573    -27.618124    -17.959576    -4.194369    26.079334    -34.951420    37.219227    1.839378    5.713181    -8.473258    -119.230873    134.584473    80.145172    78.429604    18.341354    0.923986    4.855075    20.049185    32.948544    35.694199    0.527571    1.105934    106.123718    -47.137760    14.773289    16.236212    -7.627375    -21.859224    -15.915731    19.157524    36.920303    -45.219940    -7.350313    -9.435388    0.982331    0.278758    9.546831    -17.322744    -11.409068    46.449654    -5.344821    9.349065    32.992741    20.081610    
